<?xml version="1.0" standalone="no"?>
<!DOCTYPE svg PUBLIC "-//W3C//DTD SVG 20010904//EN"
 "http://www.w3.org/TR/2001/REC-SVG-20010904/DTD/svg10.dtd">
<svg version="1.0" xmlns="http://www.w3.org/2000/svg"
 width="512.000000pt" height="512.000000pt" viewBox="0 0 512.000000 512.000000"
 preserveAspectRatio="xMidYMid meet">
<metadata>
Created by potrace 1.14, written by Peter Selinger 2001-2017
</metadata>
<g transform="translate(0.000000,512.000000) scale(0.100000,-0.100000)"
fill="#000000" stroke="none">
<path d="M450 4690 l-20 -5 0 -2135 -1 -2135 2138 0 2138 0 3 2138 2 2137 -27
0 c-2226 4 -4217 4 -4233 0z m3822 -855 c-2 -230 -4 -421 -6 -423 -2 -2 -95
-4 -207 -5 l-204 -2 -2 -200 c-1 -110 -3 -206 -3 -212 0 -10 -92 -13 -425 -13
l-425 0 2 211 3 211 198 -1 c143 -2 203 1 213 10 12 10 15 48 14 211 -1 110 1
202 3 205 3 2 95 4 205 3 139 0 202 3 207 11 4 6 7 98 6 205 -1 107 1 199 4
204 4 7 81 9 213 8 l207 -3 -3 -420z m-2993 -9 c9 -10 12 -73 10 -213 l-1
-198 211 -3 211 -2 2 -213 3 -212 210 -5 210 -5 3 -207 c1 -137 -1 -208 -8
-208 -141 -3 -834 1 -837 4 -2 2 -5 95 -6 207 l-2 204 -210 5 -210 5 -3 415
c-1 228 0 421 3 427 7 20 398 18 414 -1z m2999 -1910 c1 -110 -2 -204 -6 -208
-5 -5 -101 -10 -213 -11 l-204 -2 -5 -214 -5 -214 -207 2 -208 2 0 -209 c0
-182 -2 -211 -16 -216 -28 -11 -2122 -7 -2126 4 -1 5 -2 104 0 218 l3 209
1062 -1 1062 -1 5 210 5 210 213 3 212 2 0 210 0 210 213 -2 212 -3 3 -199z"/>
</g>
</svg>
